<svg height="16" viewBox="0 0 16 16" width="16" xmlns="http://www.w3.org/2000/svg"><path d="m4.00029246 4.08524952-.00029246 6.41475048c0 1.3254834 1.03153594 2.4100387 2.33562431 2.4946823l.16437569.0053177 4.4143985.000703c-.2061166.5822289-.7615518.999297-1.4143985.999297h-3.5c-1.65685425 0-3-1.3431458-3-3v-5.5c0-.65321869.41754351-1.20891488 1.00029246-1.41475048zm7.49970754-2.08524952c.8284271 0 1.5.67157288 1.5 1.5v7c0 .8284271-.6715729 1.5-1.5 1.5h-5c-.82842712 0-1.5-.6715729-1.5-1.5v-7c0-.82842712.67157288-1.5 1.5-1.5zm0 1h-5c-.27614237 0-.5.22385763-.5.5v7c0 .2761424.22385763.5.5.5h5c.2761424 0 .5-.2238576.5-.5v-7c0-.27614237-.2238576-.5-.5-.5z" fill="#212121"/></svg>