<svg fill="none" height="48" viewBox="0 0 48 48" width="48" xmlns="http://www.w3.org/2000/svg"><path clip-rule="evenodd" d="m35 9.22967v-3.22967h-2v3h-18v-3h-2v3.22967c0 5.42273 2.5895 10.41693 6.8037 13.55783.6238-.3942 1.2745-.7541 1.9499-1.0768-1.8705-1.2216-3.4246-2.838-4.5685-4.7107h13.6298c-1.5754 2.5789-3.9286 4.6719-6.8149 5.9172-.0053.0022-.0106.0045-.0159.0068-.1176.0506-.2361.0998-.3555.1475-.6755.2702-1.3266.5809-1.9509.9285-4.7964 2.6708-8.0105 7.5245-8.5852 13h-.0925v1.7703.2297 3h2v-3h18v3h2v-3-.2297-1.7703h-.0925c-.4962-4.7277-2.9601-8.9918-6.7112-11.7875-.6238.3942-1.2745.7541-1.9499 1.0768 1.8705 1.2216 3.4246 2.838 4.5685 4.7107h-13.6298c1.5754-2.5789 3.9286-4.6719 6.8149-5.9172.0053-.0022.0106-.0045.0159-.0068.1176-.0506.2361-.0998.3555-.1475.6755-.2702 1.3266-.5809 1.9509-.9285 5.3077-2.9555 8.6777-8.5841 8.6777-14.77033zm-3.1615 23.77033h-15.677c-.5307 1.2636-.8904 2.608-1.0564 4h17.7898c-.166-1.392-.5257-2.7364-1.0564-4zm-15.677-18h15.677c.5307-1.2636.8904-2.608 1.0564-4h-17.7898c.166 1.392.5257 2.7364 1.0564 4z" fill="#333" fill-rule="evenodd"/></svg>