<svg viewBox="0 0 24 24" xmlns="http://www.w3.org/2000/svg"><path d="m0 0h24v24h-24z" fill="#fff" opacity="0"/><path d="m19.36 7h-1.36v-2a1.92 1.92 0 0 0 -1.83-2h-8.34a1.92 1.92 0 0 0 -1.83 2v2h-1.36a2.66 2.66 0 0 0 -2.64 2.67v6.66a2.66 2.66 0 0 0 2.64 2.67h.86a2 2 0 0 0 2 2h9a2 2 0 0 0 2-2h.86a2.66 2.66 0 0 0 2.64-2.67v-6.66a2.66 2.66 0 0 0 -2.64-2.67zm-11.36-2h8v2h-8zm-.5 14v-4h9v4zm12.5-2.67a.66.66 0 0 1 -.64.67h-.86v-2a2 2 0 0 0 -2-2h-9a2 2 0 0 0 -2 2v2h-.86a.66.66 0 0 1 -.64-.67v-6.66a.66.66 0 0 1 .64-.67h14.72a.66.66 0 0 1 .64.67z" fill="#231f20"/></svg>